<?xml version="1.0" encoding="iso-8859-1"?>
<!-- Generator: Adobe Illustrator 19.0.1, SVG Export Plug-In . SVG Version: 6.00 Build 0)  -->
<svg version="1.1" xmlns="http://www.w3.org/2000/svg" xmlns:xlink="http://www.w3.org/1999/xlink" x="0px" y="0px"
	 viewBox="0 0 128 128" style="enable-background:new 0 0 128 128;" xml:space="preserve">
<g id="_x38_">
	<path id="_x3C_Path_x3E__7_" style="fill:#3D3D3D;" d="M105.788,64.609c-0.504-1.102-1.452-1.861-2.58-2.148v-6.856H92.409
		L78.167,37.312h-5.21v-7.647c0-2.805-2.282-5.087-5.087-5.087h-1.69V2.18C66.18,0.976,65.203,0,64,0s-2.18,0.976-2.18,2.18v22.398
		h-1.727c-2.805,0-5.086,2.282-5.086,5.087v7.647h-5.597L35.168,55.605h-8.483v6.717h-0.913c-1.531,0-2.889,0.861-3.543,2.246
		c-0.653,1.386-0.453,2.981,0.521,4.162l12.78,15.5c-0.434,0.291-0.827,0.647-1.122,1.102c-0.725,1.118-0.834,2.512-0.34,3.608
		l5.9,15.651h-2.33v12.85h2.882V128h4.36v-10.56h38.271V128h4.36v-10.56h2.961v-12.85h-2.83l1.224-3.034l0.279-0.338l-0.107-0.088
		l4.832-11.974c0.585-1.221,0.504-2.634-0.217-3.78c-0.391-0.62-0.941-1.09-1.572-1.404l13.109-15.173
		C106.205,67.625,106.434,66.02,105.788,64.609z M59.367,29.665c0-0.401,0.325-0.727,0.725-0.727h7.778
		c0.4,0,0.727,0.326,0.727,0.727v7.647h-9.23V29.665z M51.541,41.672h24.494l3.256,4.181H48.286L51.541,41.672z M46.023,48.76
		h35.531l5.33,6.845h-46.19L46.023,48.76z M31.045,59.965h67.803v2.357H31.045V59.965z M89.137,89.246l-2.057-1.34h2.598
		L89.137,89.246z M86.112,113.08H41.999v-4.13h44.114V113.08z M86.688,83.546H71.419l8.02-7.587l7.596,7.185L86.688,83.546z
		 M50.875,66.899l8.362,8.061l-8.362,8.06h-0.209l-8.435-8.061l8.435-8.06H50.875z M60.284,75.969l7.861,7.578H52.422L60.284,75.969
		z M65.206,104.59l-3.885-3.061l5.86-4.617l6.031,4.617l-3.959,3.061H65.206z M65.815,96.14l-5.667,4.465l-5.666-4.465l5.666-4.464
		L65.815,96.14z M57.712,87.906h4.871l-2.436,1.919L57.712,87.906z M67.24,95.368h-0.058l-5.86-4.617l3.61-2.844h4.567l3.715,2.844
		L67.24,95.368z M55.311,87.906l3.663,2.844l-5.861,4.617h-0.088L47.14,90.77l3.636-2.864H55.311z M53.03,96.912l5.944,4.617
		l-3.885,3.061h-4.057l-3.832-2.993L53.03,96.912z M60.148,102.454l2.711,2.136h-5.422L60.148,102.454z M74.4,102.448l2.771,2.142
		H71.63L74.4,102.448z M68.618,96.14l5.784-4.471l5.782,4.471L74.4,100.61L68.618,96.14z M71.911,87.906h4.982l-2.491,1.926
		L71.911,87.906z M69.86,83.02h-0.166l-8.362-8.06l8.362-8.061h0.166l8.521,8.06L69.86,83.02z M60.284,73.95l-7.54-7.268h15.079
		L60.284,73.95z M41.179,73.954l-7.608-7.272h15.217L41.179,73.954z M49.112,83.546h-8.495l-3.249-3.94l3.811-3.642L49.112,83.546z
		 M48.427,87.906l-2.466,1.943l-2.487-1.943H48.427z M45.964,91.696l5.698,4.451l-5.638,4.53l-4.071-3.18l-0.768-2.036
		L45.964,91.696z M44.86,101.612l-1.039,0.835l-0.881-2.335L44.86,101.612z M46.036,102.532l2.634,2.058h-4.042l-0.268-0.712
		L46.036,102.532z M82.942,104.59h-3.393l-3.959-3.061l5.972-4.617l3.37,2.747L82.942,104.59z M81.663,95.368h-0.101l-5.972-4.617
		l3.679-2.844h5.149l3.75,2.443L81.663,95.368z M87.987,82.043l-7.489-7.084l8.521-8.06h0.243l6.756,5.848L87.987,82.043z
		 M79.439,73.959l-7.692-7.277h15.386L79.439,73.959z M31.281,66.682v0.216h0.412l8.434,8.06l-3.686,3.523l-9.729-11.8H31.281z
		 M41.113,87.906l3.673,2.868l-4.138,3.26l-2.312-6.129H41.113z M83.019,96.158l4.832-3.728l-2.337,5.789L83.019,96.158z
		 M96.968,71.647l-5.735-4.965h10.025L96.968,71.647z"/>
</g>
<g id="Layer_1">
</g>
</svg>
