<svg xmlns="http://www.w3.org/2000/svg" viewBox="0 0 512 512"><title>Airplane03</title><g id="Airplane03"><g id="Airplane03-2" data-name="Airplane03"><path d="M102.7275 259.8389 102.9 279.6l22.3-.1 20.3 0 161 1.6 78.3.1c20.958 0 37.9383-16.0664 37.9383-35.8672 0-19.8066-16.98-35.8663-37.9383-35.8663l-74.214 2.48-79.74-147.876H199.8441a7.6183 7.6183 0 00-7.6209 7.6237L233.71 224.9132l-75.564 3.0722a54.7274 54.7274 0 00-18.0547 3.0125l-28.5456-48.4785-23.9562-.0067A5.7555 5.7555 0 0081.84 188.265l20.8877 63.896Z"/></g><g id="Airplane03-2" data-name="Airplane03" transform="translate(0 70)"><path d="M398.7 235.2 399.5 257.2l-295.2.4 0-24Z"/></g></g></svg>